/* XPM */
static char *floating[] = {
/* columns rows colors chars-per-pixel */
"18 18 2 1 ",
"  c None",
". c white",
/* pixels */
"                  ",
"                  ",
"                  ",
"                  ",
"                  ",
"                  ",
"        ..        ",
"        ..        ",
"      ..  ..      ",
"      ..  ..      ",
"        ..        ",
"        ..        ",
"                  ",
"                  ",
"                  ",
"                  ",
"                  ",
"                  "
};
