/* XPM */
static char *max_vertical[] = {
/* columns rows colors chars-per-pixel */
"18 18 2 1 ",
"  c None",
". c #7ED68D",
/* pixels */
"                  ",
"                  ",
"                  ",
"                  ",
"                  ",
"                  ",
"      ..  ..      ",
"      ..  ..      ",
"                  ",
"                  ",
"      ..          ",
"      ..          ",
"                  ",
"                  ",
"                  ",
"                  ",
"                  ",
"                  "
};
