/* XPM */
static char *max_partial[] = {
/* columns rows colors chars-per-pixel */
"18 18 2 1 ",
"  c None",
". c #7ED68D",
/* pixels */
"                  ",
"                  ",
"                  ",
"                  ",
"                  ",
"                  ",
"      ..          ",
"      ..          ",
"                  ",
"                  ",
"      ..  ..      ",
"      ..  ..      ",
"                  ",
"                  ",
"                  ",
"                  ",
"                  ",
"                  "
};
